<svg id="Layer_1" data-name="Layer 1" xmlns="http://www.w3.org/2000/svg" viewBox="0 0 878.1 374"><defs><style>.cls-1{fill:#00aeef;}.cls-1,.cls-2,.cls-3,.cls-4{fill-rule:evenodd;}.cls-2{fill:#2e3192;}.cls-3{fill:#2c2c74;}.cls-4{fill:#5054a4;}</style></defs><title>oceanimperial</title><path class="cls-1" d="M262.29,244.78h0a48.09,48.09,0,0,0-11,1.65,2.39,2.39,0,0,0-1.71,2c-.4,3,.92,7.82,6.22,8.75a17.52,17.52,0,0,0,3,.24,49.5,49.5,0,0,0,11.08-1.65,2.37,2.37,0,0,0,1.73-2.11c.19-2.57-.86-7.67-6.23-8.6a18.34,18.34,0,0,0-3.12-.25Zm0,2.37a15.6,15.6,0,0,1,2.71.21c4.67.82,4.28,6.09,4.28,6.09A46.8,46.8,0,0,1,258.83,255a14.6,14.6,0,0,1-2.63-.21c-5-.87-4.28-6.09-4.28-6.09A45.44,45.44,0,0,1,262.29,247.15Z"/><path class="cls-1" d="M268.23,254.46h0c-5.38,0-12.07,2.37-12.35,2.47a2.38,2.38,0,0,0-1.57,2.08c-.19,3,1.46,7.73,6.81,8.29a13.43,13.43,0,0,0,1.59.08c5.32,0,12.11-2.37,12.4-2.47a2.37,2.37,0,0,0,1.58-2.23c0-2.57-1.39-7.58-6.82-8.14a14.19,14.19,0,0,0-1.64-.08Zm0,2.37a12.62,12.62,0,0,1,1.4.07c4.72.48,4.69,5.77,4.69,5.77S267.68,265,262.71,265c-.47,0-.91,0-1.34-.06-5-.53-4.69-5.78-4.69-5.78S263.2,256.83,268.23,256.83Z"/><path class="cls-1" d="M274.5,263.71h0c-5.56,0-13,3.23-13.3,3.37a2.37,2.37,0,0,0-1.42,2.18c0,3,2,7.62,7.37,7.8h.46c5.48,0,13-3.24,13.33-3.38a2.36,2.36,0,0,0,1.42-2.33c-.16-2.56-1.92-7.46-7.37-7.65Zm0,2.37h.41c4.75.16,5.08,5.44,5.08,5.44s-7.33,3.18-12.38,3.18h-.38c-5.05-.17-5.08-5.44-5.08-5.44S269.38,266.08,274.5,266.08Z"/><path class="cls-1" d="M281.05,272.5h-.31c-5.62.2-13.21,4.15-13.53,4.32a2.39,2.39,0,0,0-1.26,2.28c.19,2.51,2,7.27,7.56,7.27h.34c5.52-.2,13.19-4.15,13.51-4.32a2.37,2.37,0,0,0,1.26-2.42c-.33-2.47-2.34-7.13-7.57-7.13Zm0,2.37c4.54,0,5.22,5.07,5.22,5.07s-7.46,3.88-12.51,4.06h-.25c-4.81,0-5.2-5.08-5.2-5.08s7.37-3.87,12.51-4.05Z"/><path class="cls-1" d="M288,280.84h0c-.29,0-.58,0-.89,0-5.59.6-12.88,5.07-13.19,5.26a2.38,2.38,0,0,0-1.1,2.36c.34,2.33,2.33,6.75,7.43,6.75a7.69,7.69,0,0,0,.95-.06c5.5-.58,12.88-5.06,13.19-5.25a2.36,2.36,0,0,0,1.08-2.5c-.47-2.29-2.64-6.6-7.47-6.6Zm0,2.37c4.18,0,5.15,4.71,5.15,4.71s-7.17,4.38-12.2,4.92l-.7,0c-4.39,0-5.08-4.72-5.08-4.72s7.07-4.37,12.19-4.91Z"/><path class="cls-1" d="M295.41,288.67h0a7.63,7.63,0,0,0-1.41.13c-5.54,1-12.5,5.95-12.8,6.16a2.38,2.38,0,0,0-.93,2.43c.47,2.15,2.61,6.23,7.31,6.23a9,9,0,0,0,1.52-.14c5.44-1,12.49-6,12.79-6.16a2.36,2.36,0,0,0,.9-2.57c-.63-2.26-2.9-6.08-7.38-6.08Zm0,2.37c3.88,0,5.1,4.35,5.1,4.35s-6.85,4.87-11.83,5.76a6.24,6.24,0,0,1-1.1.1c-4,0-5-4.37-5-4.37s6.75-4.85,11.82-5.75A6,6,0,0,1,295.41,291Z"/><path class="cls-1" d="M303.36,296h0a7.62,7.62,0,0,0-1.92.25c-5.45,1.36-12.05,6.8-12.33,7a2.38,2.38,0,0,0-.76,2.49c.62,2.13,2.84,5.73,7.19,5.73a8.58,8.58,0,0,0,2-.26c5.36-1.35,12-6.81,12.33-7a2.37,2.37,0,0,0,.72-2.63c-.74-2.07-3.1-5.57-7.27-5.57Zm0,2.37c3.61,0,5,4,5,4s-6.49,5.34-11.39,6.57a6.18,6.18,0,0,1-1.47.19c-3.73,0-4.91-4-4.91-4S297,299.75,302,298.5A5.53,5.53,0,0,1,303.36,298.33Z"/><path class="cls-1" d="M311.79,302.68a7.79,7.79,0,0,0-2.4.4c-5.35,1.74-11.55,7.63-11.81,7.88a2.38,2.38,0,0,0-.59,2.54c.72,1.94,3,5.23,7.05,5.23a8.21,8.21,0,0,0,2.54-.43c5.25-1.71,11.54-7.63,11.81-7.88a2.36,2.36,0,0,0,.54-2.67c-.82-1.88-3.26-5.07-7.14-5.07Zm0,2.37c3.37,0,5,3.65,5,3.65s-6.11,5.78-10.91,7.35a6,6,0,0,1-1.81.3c-3.46,0-4.82-3.68-4.82-3.68s6-5.74,10.9-7.34A5.51,5.51,0,0,1,311.79,305.05Z"/><path class="cls-1" d="M320.65,308.8h0a7.5,7.5,0,0,0-2.86.58c-5.21,2.11-11,8.42-11.23,8.69a2.37,2.37,0,0,0-.4,2.57c.79,1.76,3.14,4.74,6.9,4.74a8,8,0,0,0,3-.62c5.12-2.08,11-8.42,11.22-8.68a2.38,2.38,0,0,0,.36-2.71c-.89-1.7-3.37-4.57-7-4.57Zm0,2.37c3.16,0,4.89,3.3,4.89,3.3s-5.69,6.19-10.37,8.09a5.49,5.49,0,0,1-2.11.45c-3.23,0-4.74-3.35-4.74-3.35s5.59-6.15,10.36-8.08A5.15,5.15,0,0,1,320.65,311.17Z"/><path class="cls-1" d="M329.9,314.29h0a7.39,7.39,0,0,0-3.28.79c-5.05,2.47-10.38,9.17-10.6,9.45a2.35,2.35,0,0,0-.23,2.59c.86,1.59,3.24,4.27,6.73,4.27a7.92,7.92,0,0,0,3.44-.84c5-2.43,10.37-9.17,10.59-9.45a2.37,2.37,0,0,0,.17-2.72c-.26-.42-2.64-4.09-6.82-4.09Zm0,2.37c3,0,4.8,3,4.8,3s-5.24,6.57-9.78,8.8a5.57,5.57,0,0,1-2.4.6c-3,0-4.64-3-4.64-3s5.16-6.53,9.78-8.79A5.08,5.08,0,0,1,329.9,316.66Z"/><path class="cls-1" d="M339.52,319.11h0a7.3,7.3,0,0,0-3.7,1c-4.86,2.81-9.71,9.86-9.91,10.16a2.38,2.38,0,0,0-.05,2.6c.25.39,2.53,3.81,6.54,3.81a7.59,7.59,0,0,0,3.84-1.1c4.78-2.77,9.7-9.86,9.91-10.16a2.36,2.36,0,0,0,0-2.73c-.26-.37-2.71-3.62-6.6-3.62Zm0,2.37c2.79,0,4.68,2.64,4.68,2.64s-4.77,6.92-9.15,9.45a5.23,5.23,0,0,1-2.65.78c-2.82,0-4.53-2.7-4.53-2.7s4.68-6.87,9.14-9.45A4.9,4.9,0,0,1,339.52,321.48Z"/><path class="cls-1" d="M349.44,323.25h0a7.22,7.22,0,0,0-4.09,1.31c-4.66,3.15-9,10.52-9.18,10.83a2.38,2.38,0,0,0,.14,2.6,8.36,8.36,0,0,0,6.31,3.36,7.43,7.43,0,0,0,4.23-1.38c4.58-3.1,9-10.51,9.18-10.83a2.39,2.39,0,0,0-.22-2.72,9,9,0,0,0-6.37-3.17Zm0,2.37a6.66,6.66,0,0,1,4.54,2.32s-4.27,7.23-8.45,10.07a5.21,5.21,0,0,1-2.91,1,6.13,6.13,0,0,1-4.4-2.39s4.2-7.18,8.46-10.06A4.83,4.83,0,0,1,349.44,325.62Z"/><path class="cls-1" d="M359.64,326.69h0a7.12,7.12,0,0,0-4.47,1.61c-4.43,3.47-8.24,11.12-8.4,11.45a2.37,2.37,0,0,0,.31,2.58,8.58,8.58,0,0,0,6.06,2.92,7.31,7.31,0,0,0,4.6-1.69c4.35-3.4,8.23-11.11,8.4-11.44a2.39,2.39,0,0,0-.41-2.7,9.15,9.15,0,0,0-6.09-2.73Zm0,2.37a6.85,6.85,0,0,1,4.38,2s-3.76,7.52-7.74,10.64a5,5,0,0,1-3.14,1.18,6.25,6.25,0,0,1-4.25-2.08s3.69-7.46,7.74-10.63A4.75,4.75,0,0,1,359.64,329.06Z"/><path class="cls-1" d="M370.06,329.41h0a7.15,7.15,0,0,0-4.84,1.94c-4.17,3.76-7.44,11.67-7.58,12a2.36,2.36,0,0,0,.5,2.56,8.66,8.66,0,0,0,5.76,2.51,7.34,7.34,0,0,0,5-2c4.1-3.71,7.44-11.67,7.58-12a2.39,2.39,0,0,0-.59-2.66,9.31,9.31,0,0,0-5.78-2.32Zm0,2.37a7,7,0,0,1,4.18,1.7s-3.23,7.77-7,11.15a5,5,0,0,1-3.37,1.42,6.36,6.36,0,0,1-4.07-1.8s3.16-7.69,7-11.15A4.75,4.75,0,0,1,370.06,331.78Z"/><path class="cls-1" d="M380.66,331.4h0a7.1,7.1,0,0,0-5.19,2.28c-3.91,4.05-6.62,12.16-6.73,12.5a2.38,2.38,0,0,0,.67,2.52,8.83,8.83,0,0,0,5.45,2.12,7.25,7.25,0,0,0,5.28-2.38c3.83-4,6.6-12.15,6.72-12.5a2.37,2.37,0,0,0-.78-2.62,9.56,9.56,0,0,0-5.42-1.92Zm0,2.37a7.18,7.18,0,0,1,3.95,1.41s-2.68,8-6.18,11.62a4.87,4.87,0,0,1-3.57,1.65,6.49,6.49,0,0,1-3.87-1.52s2.61-7.9,6.18-11.61A4.71,4.71,0,0,1,380.66,333.77Z"/><path class="cls-1" d="M391.39,332.64a7.07,7.07,0,0,0-5.55,2.66c-3.61,4.31-5.74,12.59-5.83,12.94a2.35,2.35,0,0,0,.85,2.46,9,9,0,0,0,5.08,1.75,7.15,7.15,0,0,0,5.59-2.75c3.55-4.25,5.74-12.59,5.83-12.95a2.35,2.35,0,0,0-.95-2.55,9.71,9.71,0,0,0-5-1.56Zm0,2.37a7.31,7.31,0,0,1,3.68,1.15s-2.11,8.14-5.35,12a4.79,4.79,0,0,1-3.78,1.91,6.63,6.63,0,0,1-3.63-1.25s2-8.07,5.35-12A4.7,4.7,0,0,1,391.39,335Z"/><path class="cls-1" d="M402.2,333.13h0a7,7,0,0,0-5.89,3.05c-3.3,4.56-4.86,13-4.92,13.32a2.37,2.37,0,0,0,1,2.4,9,9,0,0,0,4.68,1.41,7.08,7.08,0,0,0,5.9-3.16c3.24-4.47,4.85-13,4.92-13.32a2.37,2.37,0,0,0-1.14-2.48,9.87,9.87,0,0,0-4.57-1.22Zm0,2.37a7.53,7.53,0,0,1,3.38.9s-1.55,8.26-4.51,12.36a4.76,4.76,0,0,1-4,2.18,6.79,6.79,0,0,1-3.37-1s1.49-8.19,4.51-12.36A4.72,4.72,0,0,1,402.2,335.5Z"/><path class="cls-1" d="M413,332.86h0a7.11,7.11,0,0,0-6.23,3.48c-3,4.77-3.94,13.27-4,13.63a2.37,2.37,0,0,0,1.19,2.32,9.18,9.18,0,0,0,4.23,1.1,7.17,7.17,0,0,0,6.2-3.58c2.92-4.7,3.93-13.27,4-13.63a2.37,2.37,0,0,0-1.3-2.4,10.07,10.07,0,0,0-4.08-.92Zm0,2.37a7.58,7.58,0,0,1,3,.68s-1,8.35-3.63,12.64a4.76,4.76,0,0,1-4.19,2.47,6.85,6.85,0,0,1-3.06-.79s.91-8.27,3.64-12.64A4.71,4.71,0,0,1,413,335.23Z"/><path class="cls-1" d="M423.88,331.83h0a7.15,7.15,0,0,0-6.58,3.93c-2.64,5-3,13.52-3,13.88a2.36,2.36,0,0,0,1.35,2.23,9.31,9.31,0,0,0,3.74.82,7.12,7.12,0,0,0,6.49-4c2.59-4.88,3-13.5,3-13.87a2.36,2.36,0,0,0-1.46-2.3,10,10,0,0,0-3.53-.66Zm0,2.37a7.68,7.68,0,0,1,2.63.48s-.38,8.4-2.75,12.87a4.73,4.73,0,0,1-4.39,2.76,7,7,0,0,1-2.72-.58s.33-8.31,2.75-12.86A4.79,4.79,0,0,1,423.88,334.2Z"/><path class="cls-1" d="M434.66,330.05h0a7.18,7.18,0,0,0-6.94,4.4c-2.28,5.14-2.05,13.69-2,14.05a2.39,2.39,0,0,0,1.49,2.14,9.44,9.44,0,0,0,3.21.57,7.1,7.1,0,0,0,6.78-4.49c2.24-5.05,2-13.68,2-14.05a2.36,2.36,0,0,0-1.62-2.19,10.19,10.19,0,0,0-2.92-.43Zm0,2.37a7.66,7.66,0,0,1,2.17.31s.21,8.41-1.84,13a4.76,4.76,0,0,1-4.61,3.08,6.9,6.9,0,0,1-2.33-.41s-.25-8.31,1.84-13A4.88,4.88,0,0,1,434.66,332.42Z"/><path class="cls-1" d="M445.34,327.52h0a7.32,7.32,0,0,0-7.31,4.9c-1.92,5.29-1.1,13.8-1.06,14.16a2.36,2.36,0,0,0,1.64,2,9.15,9.15,0,0,0,2.61.37,7.2,7.2,0,0,0,7.08-5c1.88-5.19,1.09-13.79,1.06-14.15a2.39,2.39,0,0,0-1.78-2.08,9.77,9.77,0,0,0-2.24-.25Zm0,2.37a7.36,7.36,0,0,1,1.66.18s.79,8.37-.93,13.12a4.83,4.83,0,0,1-4.85,3.41,6.82,6.82,0,0,1-1.89-.26s-.83-8.27.93-13.12A5,5,0,0,1,445.34,329.89Z"/><path class="cls-1" d="M455.83,324.25h0c-3.83,0-6.69,2-7.66,5.42-1.55,5.41-.14,13.84-.07,14.2a2.38,2.38,0,0,0,1.77,1.91,9.32,9.32,0,0,0,2,.21,7.22,7.22,0,0,0,7.37-5.48c1.51-5.31.13-13.83.07-14.19a2.38,2.38,0,0,0-1.91-1.95,9.41,9.41,0,0,0-1.55-.12Zm0,2.37a7.06,7.06,0,0,1,1.12.08s1.37,8.3,0,13.15a4.92,4.92,0,0,1-5.09,3.76,6.79,6.79,0,0,1-1.42-.14s-1.4-8.2,0-13.15A5.17,5.17,0,0,1,455.83,326.62Z"/><path class="cls-1" d="M466.09,320.25h0c-3.26,0-7.07,1.57-8,6-1.16,5.5.84,13.82.92,14.17a2.38,2.38,0,0,0,1.91,1.78,9.38,9.38,0,0,0,1.3.09c4,0,6.86-2.24,7.65-6,1.14-5.4-.83-13.81-.92-14.16a2.4,2.4,0,0,0-2-1.81,7.09,7.09,0,0,0-.82,0Zm0,2.37a4.11,4.11,0,0,1,.55,0s1.95,8.18.91,13.12a5,5,0,0,1-5.33,4.12,6.11,6.11,0,0,1-.91-.06s-2-8.08-.9-13.12C461.2,323,464.72,322.62,466.09,322.62Z"/><path class="cls-1" d="M475.93,315.55h0c-3.62,0-7.55,2-8.18,6.54-.78,5.57,1.79,13.73,1.91,14.08a2.39,2.39,0,0,0,2,1.63,5.71,5.71,0,0,0,.64,0c3.37,0,7.21-1.72,7.88-6.55.76-5.47-1.79-13.71-1.9-14.06a2.39,2.39,0,0,0-2.17-1.66Zm-.68,2.79H476s2.52,7.82,1.83,12.82c-.59,4.15-4.29,4.4-5.54,4.4a1.27,1.27,0,0,1-.41-.06s-2.53-7.75-1.81-12.85c.6-4.31,5.09-4.31,5.83-4.31Z"/><path class="cls-1" d="M485.07,310.9H485c-2.57,0-7.53,1.3-7.91,6.74-.38,5.62,2.75,13.67,2.89,14a2.41,2.41,0,0,0,2.13,1.58h.12a7.8,7.8,0,0,0,7.93-7.37c.37-5.5-2.75-13.33-2.89-13.68a2.17,2.17,0,0,0-2.2-1.28Zm0,1.66s3.07,7.8,2.72,12.84c-.33,4.76-5,4.86-5.56,4.86h-.05s-3.08-7.7-2.72-12.84C479.78,312.68,485.07,312.56,485.07,312.56Z"/><path class="cls-1" d="M493.71,304.21l-.24,0c-2.55.25-7.39,2.17-7.39,7.63,0,5.62,3.69,13.34,3.85,13.67a2.37,2.37,0,0,0,2.14,1.34h.09c3-.13,7.54-2.27,7.53-7.64,0-5.52-3.68-13.33-3.84-13.66a2.37,2.37,0,0,0-2.14-1.36Zm0,2.37s3.61,7.6,3.61,12.65-5.25,5.27-5.25,5.27-3.61-7.5-3.62-12.65C488.45,307.11,493.71,306.58,493.71,306.58Z"/><path class="cls-1" d="M501.91,297.64a1.81,1.81,0,0,0-.4,0c-2.53.43-7.23,2.68-6.84,8.12.4,5.62,4.61,13.06,4.79,13.38a2.36,2.36,0,0,0,2.06,1.19h.26c3-.34,7.36-2.79,7-8.15s-4.6-13-4.78-13.36a2.39,2.39,0,0,0-2.07-1.21Zm0,2.37s4.13,7.33,4.49,12.37-4.88,5.62-4.88,5.62-4.12-7.22-4.49-12.36C496.7,300.9,501.91,300,501.91,300Z"/><path class="cls-1" d="M509.63,290.52a2.74,2.74,0,0,0-.56.06c-2.5.61-7,3.19-6.25,8.59.78,5.57,5.5,12.7,5.71,13a2.38,2.38,0,0,0,2,1.05,2.15,2.15,0,0,0,.43,0c3-.54,7.14-3.29,6.39-8.61s-5.51-12.69-5.71-13a2.37,2.37,0,0,0-2-1.06Zm0,2.37s4.63,7,5.34,12-4.47,5.95-4.47,5.95-4.62-6.92-5.33-12C504.5,294.14,509.63,292.89,509.63,292.89Z"/><path class="cls-1" d="M516.84,282.87a2.57,2.57,0,0,0-.72.11c-2.45.78-6.78,3.67-5.64,9,1.17,5.5,6.38,12.29,6.6,12.57a2.4,2.4,0,0,0,1.88.93,2.46,2.46,0,0,0,.59-.08c2.93-.75,6.9-3.78,5.78-9s-6.38-12.27-6.61-12.56a2.34,2.34,0,0,0-1.88-.93Zm0,2.37s5.11,6.68,6.17,11.62-4,6.25-4,6.25-5.09-6.59-6.16-11.62C511.8,286.84,516.84,285.24,516.84,285.24Z"/><path class="cls-1" d="M523.5,274.74a2.44,2.44,0,0,0-.88.16c-2.39,1-6.51,4.14-5,9.37,1.56,5.42,7.22,11.82,7.47,12.09a2.37,2.37,0,0,0,2.51.67c2.88-.95,6.63-4.25,5.14-9.42s-7.22-11.8-7.46-12.07a2.39,2.39,0,0,0-1.78-.8Zm0,2.37s5.56,6.3,7,11.16-3.6,6.51-3.6,6.51-5.54-6.2-7-11.16C518.59,279.06,523.5,277.11,523.5,277.11Z"/><path class="cls-1" d="M529.57,266.16a2.49,2.49,0,0,0-1,.23c-2.31,1.12-6.2,4.58-4.33,9.7,1.93,5.29,8,11.28,8.29,11.53a2.33,2.33,0,0,0,1.65.68,2.38,2.38,0,0,0,.91-.18c2.8-1.15,6.3-4.7,4.46-9.75s-8-11.27-8.28-11.53a2.38,2.38,0,0,0-1.67-.68Zm0,2.37s6,5.9,7.72,10.65-3.14,6.75-3.14,6.75-5.95-5.81-7.71-10.65C524.81,270.82,529.57,268.53,529.57,268.53Z"/><path class="cls-1" d="M535,257.18a2.36,2.36,0,0,0-1.17.31c-2.24,1.27-5.87,5-3.65,10s8.8,10.69,9.07,10.92a2.35,2.35,0,0,0,1.54.57,2.32,2.32,0,0,0,1-.25c2.72-1.35,6-5.13,3.77-10s-8.78-10.68-9.06-10.92a2.36,2.36,0,0,0-1.55-.57Zm0,2.37s6.39,5.47,8.45,10.08-2.66,7-2.66,7-6.35-5.38-8.44-10.09C530.44,262.17,535,259.55,535,259.55Z"/><path class="cls-1" d="M539.86,247.84a2.35,2.35,0,0,0-1.32.4c-2.14,1.43-5.51,5.39-2.94,10.21s9.52,10.05,9.81,10.26a2.35,2.35,0,0,0,1.4.46,2.32,2.32,0,0,0,1.2-.32c2.62-1.54,5.59-5.54,3.06-10.28s-9.51-10-9.8-10.26a2.39,2.39,0,0,0-1.41-.47Zm0,2.37s6.74,5,9.12,9.47-2.17,7.12-2.17,7.12-6.7-4.92-9.12-9.47C535.46,253.14,539.86,250.21,539.86,250.21Z"/><path class="cls-1" d="M544,238.19a2.33,2.33,0,0,0-1.45.49c-2,1.58-5.12,5.77-2.23,10.39,3,4.77,10.2,9.37,10.5,9.56a2.43,2.43,0,0,0,1.27.37,2.34,2.34,0,0,0,1.34-.42c2.5-1.71,5.19-5.91,2.34-10.47s-10.19-9.35-10.49-9.55a2.4,2.4,0,0,0-1.28-.37Zm0,2.37s7.08,4.53,9.76,8.81-1.67,7.26-1.67,7.26-7-4.45-9.76-8.82C539.83,243.79,544,240.56,544,240.56Z"/><path class="cls-1" d="M547.49,228.27a2.32,2.32,0,0,0-1.57.6c-1.93,1.71-4.72,6.11-1.5,10.52s10.82,8.63,11.14,8.8a2.39,2.39,0,0,0,1.13.28,2.37,2.37,0,0,0,1.47-.51c2.38-1.88,4.76-6.26,1.6-10.61s-10.81-8.62-11.13-8.79a2.33,2.33,0,0,0-1.14-.29Zm0,2.37s7.38,4,10.35,8.1-1.15,7.36-1.15,7.36-7.33-3.94-10.36-8.11C543.54,234.16,547.49,230.64,547.49,230.64Z"/><path class="cls-1" d="M550.26,218.13a2.35,2.35,0,0,0-1.69.72c-1.8,1.84-4.27,6.42-.76,10.59s11.4,7.86,11.73,8a2.4,2.4,0,0,0,1,.21,2.36,2.36,0,0,0,1.59-.61c2.24-2,4.32-6.58.86-10.7s-11.39-7.84-11.72-8a2.27,2.27,0,0,0-1-.22Zm0,2.37s7.65,3.5,10.9,7.36-.64,7.42-.64,7.42-7.58-3.42-10.89-7.36C546.57,224.29,550.26,220.5,550.26,220.5Z"/><path class="cls-1" d="M552.33,207.82a2.37,2.37,0,0,0-1.81.84c-1.67,2-3.81,6.71,0,10.62s11.93,7,12.27,7.17a2.33,2.33,0,0,0,.82.15,2.38,2.38,0,0,0,1.72-.74c2.08-2.2,3.84-6.87.1-10.73s-11.91-7-12.25-7.15a2.22,2.22,0,0,0-.83-.16Zm0,2.38s7.86,3,11.38,6.58-.12,7.45-.12,7.45-7.8-2.89-11.38-6.6C548.9,214.23,552.33,210.2,552.33,210.2Z"/><path class="cls-1" d="M410.46,18.33h0a7.07,7.07,0,0,0-5.9,3.17c-3.24,4.46-4.85,13-4.92,13.31a2.37,2.37,0,0,0,1.14,2.48,9.71,9.71,0,0,0,4.58,1.23,7,7,0,0,0,5.88-3.06c3.3-4.55,4.86-13,4.92-13.32a2.37,2.37,0,0,0-1-2.4,9.11,9.11,0,0,0-4.68-1.41Zm0,2.38a6.84,6.84,0,0,1,3.37,1s-1.49,8.19-4.5,12.36a4.72,4.72,0,0,1-4,2.08,7.49,7.49,0,0,1-3.39-.91s1.55-8.26,4.51-12.35A4.75,4.75,0,0,1,410.46,20.71Z"/><path class="cls-1" d="M399.3,18.26h0a7.15,7.15,0,0,0-6.2,3.58c-2.92,4.69-3.93,13.26-4,13.62a2.35,2.35,0,0,0,1.3,2.4,9.89,9.89,0,0,0,4.08.92,7.12,7.12,0,0,0,6.23-3.47c3-4.78,3.94-13.28,4-13.64a2.38,2.38,0,0,0-1.18-2.32,9.33,9.33,0,0,0-4.24-1.09Zm0,2.37a6.86,6.86,0,0,1,3.06.78s-.91,8.27-3.63,12.64a4.74,4.74,0,0,1-4.22,2.36,7.67,7.67,0,0,1-3-.67s1-8.36,3.63-12.64A4.75,4.75,0,0,1,399.3,20.63Z"/><path class="cls-1" d="M388.19,19h0a7.13,7.13,0,0,0-6.5,4c-2.58,4.87-3,13.5-3,13.86a2.39,2.39,0,0,0,1.47,2.3,10,10,0,0,0,3.53.66,7.15,7.15,0,0,0,6.59-3.93c2.63-5,3-13.51,3-13.87a2.38,2.38,0,0,0-1.34-2.24,9.5,9.5,0,0,0-3.74-.81Zm0,2.37a7,7,0,0,1,2.71.58s-.33,8.32-2.74,12.86a4.79,4.79,0,0,1-4.49,2.67A7.68,7.68,0,0,1,381,37s.38-8.4,2.75-12.87A4.75,4.75,0,0,1,388.19,21.33Z"/><path class="cls-1" d="M377.18,20.43h0a7.13,7.13,0,0,0-6.79,4.49c-2.23,5-2.05,13.68-2,14A2.35,2.35,0,0,0,370,41.16a10.35,10.35,0,0,0,2.92.43,7.17,7.17,0,0,0,6.94-4.4c2.28-5.14,2.05-13.69,2-14A2.36,2.36,0,0,0,380.38,21a9.63,9.63,0,0,0-3.2-.57Zm0,2.37a6.88,6.88,0,0,1,2.32.41s.25,8.32-1.83,13a4.89,4.89,0,0,1-4.78,3,7.66,7.66,0,0,1-2.17-.31s-.21-8.41,1.84-13A4.78,4.78,0,0,1,377.18,22.8Z"/><path class="cls-1" d="M366.33,22.67h0a7.2,7.2,0,0,0-7.08,5c-1.88,5.19-1.09,13.79-1.06,14.16A2.39,2.39,0,0,0,360,43.87a9.8,9.8,0,0,0,2.25.25,7.32,7.32,0,0,0,7.31-4.89c1.91-5.29,1.09-13.81,1.05-14.17a2.37,2.37,0,0,0-1.64-2,9.15,9.15,0,0,0-2.61-.37Zm0,2.37a6.82,6.82,0,0,1,1.89.26s.83,8.28-.92,13.12a5,5,0,0,1-5.08,3.33,7.4,7.4,0,0,1-1.67-.18s-.79-8.37.93-13.12A4.83,4.83,0,0,1,366.33,25Z"/><path class="cls-1" d="M355.7,25.66h0a7.21,7.21,0,0,0-7.37,5.48c-1.51,5.3-.13,13.83-.07,14.19a2.36,2.36,0,0,0,1.91,1.94,9.1,9.1,0,0,0,1.54.12c3.84,0,6.71-2,7.68-5.42,1.54-5.4.12-13.84.06-14.2a2.34,2.34,0,0,0-1.77-1.9,8.65,8.65,0,0,0-2-.21Zm0,2.37a6.79,6.79,0,0,1,1.42.14s1.4,8.2,0,13.15c-.91,3.23-3.79,3.7-5.39,3.7a7,7,0,0,1-1.11-.08s-1.37-8.29,0-13.15A4.92,4.92,0,0,1,355.7,28Z"/><path class="cls-1" d="M345.33,29.38h0c-4,0-6.85,2.24-7.65,6-1.14,5.4.84,13.81.92,14.16a2.4,2.4,0,0,0,2,1.81,7,7,0,0,0,.81,0c3.26,0,7.08-1.57,8-6,1.17-5.5-.83-13.82-.92-14.17a2.37,2.37,0,0,0-1.91-1.78,9.38,9.38,0,0,0-1.3-.09Zm0,2.37a6.11,6.11,0,0,1,.91.06s2,8.08.9,13.12c-.78,3.72-4.3,4.09-5.68,4.09-.34,0-.55,0-.55,0s-2-8.19-.91-13.13A5,5,0,0,1,345.33,31.75Z"/><path class="cls-1" d="M335.23,33.81h0c-3.37,0-7.2,1.72-7.88,6.55-.76,5.47,1.8,13.72,1.91,14.07a2.39,2.39,0,0,0,2.17,1.66h.19c3.62,0,7.56-2,8.19-6.54.77-5.56-1.8-13.72-1.91-14.07a2.41,2.41,0,0,0-2-1.64,5.71,5.71,0,0,0-.64,0Zm0,2.37a3.44,3.44,0,0,1,.41,0s2.53,7.72,1.82,12.82c-.6,4.31-5.11,4.28-5.84,4.28h-.1S329,45.48,329.7,40.48C330.28,36.33,334,36.18,335.23,36.18Z"/><path class="cls-1" d="M325.32,38.41h0a7.79,7.79,0,0,0-7.92,7.37c-.38,5.51,2.74,13.34,2.87,13.68a2.19,2.19,0,0,0,2.21,1.28h.07c2.57,0,7.54-1.3,7.91-6.74.39-5.62-2.75-13.67-2.89-14a2.41,2.41,0,0,0-2.13-1.59Zm-.46,3h.51s3.08,7.69,2.72,12.83c-.32,4.74-5.61,4.88-5.61,4.88s-3.07-7.81-2.72-12.84c.33-4.77,5-4.87,5.56-4.87Z"/><path class="cls-1" d="M315.49,44.77h-.1c-3,.13-7.54,2.27-7.53,7.65s3.68,13.33,3.84,13.66a2.37,2.37,0,0,0,2.14,1.35h.24c2.56-.25,7.4-2.18,7.39-7.64,0-5.62-3.69-13.34-3.85-13.67a2.37,2.37,0,0,0-2.13-1.34Zm0,2.37s3.6,7.5,3.61,12.65c0,4.75-5.26,5.27-5.26,5.27s-3.6-7.6-3.61-12.65S315.49,47.14,315.49,47.14Z"/><path class="cls-1" d="M306,51.27a1.14,1.14,0,0,0-.26,0c-3,.33-7.36,2.78-7,8.14.39,5.51,4.61,13.05,4.79,13.37a2.37,2.37,0,0,0,2.06,1.2,2.69,2.69,0,0,0,.4,0c2.54-.43,7.23-2.69,6.84-8.14s-4.61-13-4.79-13.36a2.37,2.37,0,0,0-2.06-1.2Zm0,2.37s4.12,7.23,4.49,12.36c.34,4.74-4.88,5.63-4.88,5.63s-4.13-7.33-4.48-12.36S306,53.64,306,53.64Z"/><path class="cls-1" d="M297.05,58.41a3,3,0,0,0-.42,0c-3,.55-7.15,3.29-6.4,8.62s5.51,12.69,5.71,13a2.35,2.35,0,0,0,2,1.07,2.2,2.2,0,0,0,.56-.07c2.5-.61,7-3.19,6.26-8.59-.79-5.57-5.52-12.7-5.72-13a2.36,2.36,0,0,0-2-1.06Zm0,2.38s4.62,6.92,5.34,12c.66,4.71-4.47,6-4.47,6s-4.63-7-5.34-12S297.05,60.79,297.05,60.79Z"/><path class="cls-1" d="M288.59,66.17a2.3,2.3,0,0,0-.58.07c-2.94.75-6.91,3.78-5.78,9s6.37,12.28,6.6,12.57a2.38,2.38,0,0,0,1.88.93,2.57,2.57,0,0,0,.72-.11c2.45-.79,6.78-3.68,5.64-9-1.17-5.5-6.38-12.29-6.6-12.57a2.37,2.37,0,0,0-1.88-.92Zm0,2.37s5.09,6.58,6.16,11.61c1,4.65-4,6.26-4,6.26s-5.11-6.68-6.16-11.63S288.59,68.54,288.59,68.54Z"/><path class="cls-1" d="M280.69,74.49a2.39,2.39,0,0,0-.74.12c-2.88,1-6.62,4.25-5.13,9.42s7.22,11.8,7.46,12.08a2.37,2.37,0,0,0,1.78.8,2.4,2.4,0,0,0,.87-.17c2.39-.95,6.51-4.14,5-9.38-1.56-5.4-7.22-11.81-7.46-12.08a2.4,2.4,0,0,0-1.78-.79Zm0,2.37s5.53,6.21,6.95,11.16c1.32,4.56-3.59,6.52-3.59,6.52s-5.57-6.31-7-11.16S280.7,76.86,280.7,76.86Z"/><path class="cls-1" d="M273.4,83.34a2.33,2.33,0,0,0-.9.18c-2.81,1.16-6.31,4.71-4.47,9.76s8,11.27,8.28,11.52a2.39,2.39,0,0,0,1.67.69,2.35,2.35,0,0,0,1-.24c2.32-1.11,6.21-4.58,4.33-9.7-1.92-5.28-8-11.28-8.29-11.53a2.37,2.37,0,0,0-1.65-.68Zm0,2.38s6,5.81,7.71,10.64c1.63,4.46-3.13,6.76-3.13,6.76s-6-5.91-7.72-10.65S273.4,85.72,273.4,85.72Z"/><path class="cls-1" d="M266.73,92.68a2.29,2.29,0,0,0-1.05.25c-2.72,1.35-6,5.14-3.77,10s8.79,10.68,9.06,10.91a2.38,2.38,0,0,0,2.72.26c2.24-1.27,5.88-5,3.65-10s-8.8-10.69-9.07-10.92a2.41,2.41,0,0,0-1.54-.57Zm0,2.37s6.35,5.39,8.45,10.09c1.93,4.33-2.66,7-2.66,7s-6.39-5.47-8.44-10.08S266.73,95.05,266.73,95.05Z"/><path class="cls-1" d="M260.74,102.47a2.36,2.36,0,0,0-1.2.33c-2.62,1.53-5.59,5.53-3.06,10.28s9.51,10,9.8,10.26a2.36,2.36,0,0,0,2.73.07c2.14-1.43,5.51-5.4,2.95-10.22s-9.53-10-9.82-10.26a2.39,2.39,0,0,0-1.4-.46Zm0,2.37s6.7,4.93,9.12,9.47c2.24,4.19-2.16,7.12-2.16,7.12s-6.75-5-9.13-9.47S260.74,104.84,260.74,104.84Z"/><path class="cls-1" d="M255.44,112.65a2.43,2.43,0,0,0-1.34.41c-2.5,1.71-5.19,5.92-2.33,10.47s10.18,9.36,10.49,9.55A2.35,2.35,0,0,0,265,133c2-1.57,5.12-5.77,2.22-10.39s-10.2-9.36-10.5-9.55a2.34,2.34,0,0,0-1.27-.37Zm0,2.37s7,4.44,9.76,8.81c2.52,4-1.66,7.26-1.66,7.26s-7.09-4.54-9.77-8.81S255.44,115,255.44,115Z"/><path class="cls-1" d="M250.86,123.17a2.38,2.38,0,0,0-1.47.52c-2.38,1.88-4.76,6.25-1.6,10.6s10.82,8.62,11.14,8.8a2.37,2.37,0,0,0,2.71-.31c1.92-1.72,4.71-6.12,1.49-10.53s-10.83-8.62-11.14-8.79a2.4,2.4,0,0,0-1.13-.29Zm0,2.37s7.33,4,10.36,8.11c2.79,3.84-1.16,7.36-1.16,7.36s-7.38-4-10.35-8.11S250.86,125.54,250.86,125.54Z"/><path class="cls-1" d="M247,134a2.35,2.35,0,0,0-1.6.62c-2.24,2-4.32,6.58-.86,10.7s11.39,7.84,11.72,8a2.45,2.45,0,0,0,1,.21,2.34,2.34,0,0,0,1.69-.71c1.8-1.84,4.27-6.43.76-10.6s-11.4-7.85-11.73-8a2.35,2.35,0,0,0-1-.21Zm0,2.37s7.57,3.42,10.89,7.37c3.05,3.63-.64,7.41-.64,7.41s-7.65-3.5-10.9-7.36S247,136.36,247,136.36Z"/><path class="cls-1" d="M244,145.05a2.37,2.37,0,0,0-1.72.73c-2.09,2.2-3.85,6.87-.11,10.73s11.91,7,12.25,7.16a2.44,2.44,0,0,0,.84.15A2.35,2.35,0,0,0,257,163c1.66-2,3.8-6.71,0-10.62s-11.92-7-12.26-7.17a2.62,2.62,0,0,0-.82-.14Zm0,2.37s7.8,2.88,11.38,6.59c3.3,3.4-.12,7.44-.12,7.44s-7.87-3-11.39-6.59S244,147.42,244,147.42Z"/><path class="cls-1" d="M241.68,156.29a2.38,2.38,0,0,0-1.83.86c-1.93,2.34-3.36,7.12.64,10.71s12.37,6.18,12.72,6.29a2.73,2.73,0,0,0,.68.1,2.36,2.36,0,0,0,1.91-1c1.53-2.07,3.33-7-.73-10.6s-12.38-6.19-12.73-6.29a2.16,2.16,0,0,0-.66-.1Zm0,2.37s8,2.34,11.81,5.78c3.53,3.17.4,7.43.4,7.43s-8.06-2.4-11.82-5.77S241.68,158.66,241.68,158.66Z"/><path class="cls-1" d="M240.18,167.67a2.37,2.37,0,0,0-1.93,1c-1.77,2.47-2.86,7.33,1.38,10.64s12.78,5.3,13.13,5.38a2.31,2.31,0,0,0,.52.06,2.38,2.38,0,0,0,2-1.1c1.38-2.18,2.85-7.18-1.46-10.53s-12.78-5.3-13.14-5.38a2.07,2.07,0,0,0-.5-.06Zm0,2.37s8.13,1.78,12.18,4.94c3.75,2.92.92,7.39.92,7.39s-8.2-1.84-12.19-4.94S240.18,170,240.18,170Z"/><path class="cls-1" d="M239.47,179.12a2.37,2.37,0,0,0-2,1.13c-1.59,2.59-2.34,7.52,2.12,10.52s13.11,4.4,13.47,4.45a2.19,2.19,0,0,0,.36,0A2.38,2.38,0,0,0,255.5,194c1.22-2.26,2.33-7.35-2.2-10.39s-13.12-4.41-13.48-4.46a2.07,2.07,0,0,0-.35,0Zm0,2.37s8.23,1.21,12.5,4.08c3.94,2.65,1.43,7.31,1.43,7.31s-8.32-1.26-12.5-4.07S239.48,181.49,239.48,181.49Z"/><path class="cls-1" d="M239.58,190.6a2.36,2.36,0,0,0-2.1,1.27c-1.41,2.69-1.81,7.67,2.85,10.35s13.38,3.47,13.75,3.5h.19a2.38,2.38,0,0,0,2.16-1.39c1.06-2.35,1.81-7.5-2.92-10.22s-13.39-3.48-13.75-3.5Zm0,2.37s8.29.62,12.75,3.2c4.11,2.36,1.93,7.18,1.93,7.18s-8.37-.67-12.75-3.19S239.58,193,239.58,193Z"/><path class="cls-1" d="M240.48,202.2a2.31,2.31,0,0,0-2.18,1.34c-1.21,2.78-1.27,7.47,3.57,9.82s13.59,2.24,14,2.24h0a2.17,2.17,0,0,0,2.23-1.29c.89-2.41,1.28-7.4-3.63-9.78s-13.6-2.33-14-2.33Zm0,2.21s8.31,0,12.94,2.3c4.27,2.07,2.43,7,2.43,7s-8.4-.08-12.95-2.29S240.48,204.41,240.48,204.41Z"/><path class="cls-1" d="M553.67,197.4a2.38,2.38,0,0,0-1.92,1c-1.52,2.07-3.33,6.95.73,10.59s12.38,6.19,12.73,6.3a2.5,2.5,0,0,0,.66.09,2.38,2.38,0,0,0,1.83-.86c1.93-2.33,3.36-7.11-.64-10.71s-12.37-6.18-12.72-6.28a2.22,2.22,0,0,0-.67-.1Zm0,2.37s8.05,2.4,11.81,5.77.39,7.44.39,7.44-8-2.33-11.81-5.78C550.53,204,553.67,199.77,553.67,199.77Z"/><path class="cls-1" d="M554.27,186.9a2.36,2.36,0,0,0-2,1.11c-1.38,2.17-2.84,7.17,1.46,10.52s12.78,5.31,13.14,5.39a2.92,2.92,0,0,0,.5.05,2.37,2.37,0,0,0,1.93-1c1.77-2.46,2.86-7.33-1.38-10.64S555.15,187,554.79,187a2.24,2.24,0,0,0-.52-.06Zm0,2.37s8.2,1.84,12.19,4.94.91,7.39.91,7.39-8.12-1.77-12.18-4.94C551.44,193.74,554.27,189.27,554.27,189.27Z"/><path class="cls-1" d="M554.14,176.4a2.37,2.37,0,0,0-2.08,1.24c-1.22,2.27-2.34,7.35,2.19,10.4s13.13,4.4,13.48,4.46l.35,0a2.38,2.38,0,0,0,2-1.13c1.59-2.58,2.33-7.51-2.13-10.52s-13.11-4.39-13.47-4.45a2.17,2.17,0,0,0-.36,0Zm0,2.37s8.32,1.25,12.51,4.07,1.43,7.31,1.43,7.31-8.23-1.2-12.5-4.08C551.64,183.42,554.14,178.77,554.14,178.77Z"/><path class="cls-1" d="M553.29,165.92a2.36,2.36,0,0,0-2.16,1.39c-1.06,2.35-1.82,7.5,2.91,10.22S567.44,181,567.8,181H568a2.37,2.37,0,0,0,2.1-1.27c1.4-2.68,1.8-7.66-2.86-10.34s-13.38-3.47-13.74-3.5Zm0,2.37s8.37.67,12.75,3.19,1.94,7.19,1.94,7.19-8.3-.62-12.76-3.19C551.11,173.11,553.29,168.29,553.29,168.29Z"/><path class="cls-1" d="M551.7,156a2.16,2.16,0,0,0-2.22,1.29c-.9,2.41-1.29,7.4,3.62,9.78s13.6,2.33,14,2.33h0a2.31,2.31,0,0,0,2.17-1.34c1.21-2.78,1.27-7.47-3.56-9.82s-13.6-2.24-14-2.24Zm0,1.86s8.4.09,12.95,2.29,2.43,7,2.43,7-8.32,0-13-2.3C549.86,162.86,551.7,157.9,551.7,157.9Z"/><path class="cls-1" d="M544.85,104.26c-5.32,0-12.12,2.38-12.4,2.48a2.37,2.37,0,0,0-1.59,2.22c0,2.57,1.39,7.58,6.81,8.15.52,0,1.07.08,1.65.08,5.38,0,12.07-2.38,12.35-2.48a2.38,2.38,0,0,0,1.57-2.08c.19-3-1.46-7.73-6.81-8.29a15.59,15.59,0,0,0-1.58-.08Zm0,2.37a11.66,11.66,0,0,1,1.34.07c5,.52,4.68,5.78,4.68,5.78s-6.52,2.34-11.55,2.34a12.62,12.62,0,0,1-1.4-.07c-4.72-.49-4.69-5.78-4.69-5.78S539.87,106.63,544.85,106.63Z"/><path class="cls-1" d="M540,94.57h0c-5.48,0-13,3.24-13.33,3.38a2.36,2.36,0,0,0-1.42,2.33c.16,2.56,1.91,7.47,7.36,7.65H533c5.57,0,13-3.24,13.32-3.38a2.39,2.39,0,0,0,1.42-2.18c0-3-2-7.62-7.38-7.8Zm0,2.37h.37c5,.17,5.08,5.44,5.08,5.44s-7.23,3.18-12.36,3.18h-.4c-4.75-.16-5.08-5.43-5.08-5.43S534.9,96.94,540,96.94Z"/><path class="cls-1" d="M534,85.26h-.33c-5.52.2-13.19,4.15-13.52,4.32A2.37,2.37,0,0,0,518.93,92c.33,2.47,2.34,7.13,7.58,7.13h.3c5.62-.21,13.21-4.16,13.53-4.33a2.37,2.37,0,0,0,1.27-2.28c-.2-2.51-2-7.27-7.57-7.27Zm0,2.38c4.81,0,5.2,5.07,5.2,5.07s-7.37,3.87-12.51,4.06h-.22c-4.54,0-5.22-5.07-5.22-5.07s7.45-3.87,12.5-4.06Z"/><path class="cls-1" d="M527.33,76.4h0a7.66,7.66,0,0,0-1,0c-5.5.59-12.87,5.06-13.18,5.25a2.38,2.38,0,0,0-1.09,2.51c.47,2.28,2.64,6.6,7.48,6.6.28,0,.57,0,.88,0,5.59-.59,12.89-5.07,13.19-5.26a2.35,2.35,0,0,0,1.1-2.36c-.34-2.33-2.34-6.74-7.43-6.74Zm0,2.37c4.39,0,5.09,4.72,5.09,4.72s-7.08,4.37-12.2,4.91a4.64,4.64,0,0,1-.63,0c-4.19,0-5.16-4.71-5.16-4.71s7.17-4.38,12.2-4.92A5.69,5.69,0,0,1,527.33,78.77Z"/><path class="cls-1" d="M520,68a9,9,0,0,0-1.52.14c-5.44,1-12.49,6-12.78,6.16a2.37,2.37,0,0,0-.91,2.58c.63,2.25,2.9,6.08,7.38,6.08a8.72,8.72,0,0,0,1.42-.13c5.53-1,12.5-5.95,12.79-6.16a2.37,2.37,0,0,0,.93-2.44C526.81,72.1,524.67,68,520,68Zm0,2.37c4,0,5,4.37,5,4.37s-6.76,4.86-11.83,5.75a5.06,5.06,0,0,1-1,.1c-3.88,0-5.1-4.35-5.1-4.35s6.85-4.88,11.83-5.77A6.16,6.16,0,0,1,520,70.39Z"/><path class="cls-1" d="M512,60.18a8.12,8.12,0,0,0-2,.27c-5.36,1.34-12,6.8-12.32,7a2.36,2.36,0,0,0-.73,2.63c.74,2.07,3.1,5.57,7.27,5.57a8,8,0,0,0,1.92-.24c5.45-1.37,12-6.81,12.33-7a2.36,2.36,0,0,0,.76-2.49c-.62-2.13-2.84-5.73-7.19-5.73Zm0,2.37c3.73,0,4.92,4,4.92,4s-6.4,5.31-11.4,6.56a5.47,5.47,0,0,1-1.34.17c-3.61,0-5-4-5-4s6.49-5.33,11.39-6.56A5.74,5.74,0,0,1,512,62.55Z"/><path class="cls-1" d="M503.5,52.92h0a8.18,8.18,0,0,0-2.53.42c-5.25,1.72-11.54,7.63-11.8,7.88a2.35,2.35,0,0,0-.54,2.67c.82,1.88,3.25,5.07,7.13,5.07a7.5,7.5,0,0,0,2.4-.4c5.35-1.74,11.56-7.63,11.82-7.88a2.37,2.37,0,0,0,.58-2.54c-.72-1.94-3-5.22-7.06-5.22Zm0,2.37c3.47,0,4.84,3.68,4.84,3.68s-6,5.75-10.91,7.34a5.22,5.22,0,0,1-1.67.28c-3.37,0-5-3.65-5-3.65s6.1-5.78,10.9-7.35A5.93,5.93,0,0,1,503.5,55.29Z"/><path class="cls-1" d="M494.5,46.26h0a8,8,0,0,0-3,.62c-5.12,2.08-11,8.42-11.22,8.69a2.36,2.36,0,0,0-.36,2.7c.89,1.7,3.37,4.58,7,4.58a7.68,7.68,0,0,0,2.85-.58c5.21-2.12,11-8.43,11.23-8.69A2.38,2.38,0,0,0,501.4,51c-.8-1.76-3.15-4.74-6.9-4.74Zm0,2.37c3.23,0,4.75,3.35,4.75,3.35s-5.6,6.16-10.37,8.09a5.14,5.14,0,0,1-2,.41c-3.17,0-4.89-3.31-4.89-3.31s5.68-6.19,10.36-8.09A5.69,5.69,0,0,1,494.49,48.63Z"/><path class="cls-1" d="M485,40.25h0a7.79,7.79,0,0,0-3.44.85c-5,2.43-10.36,9.16-10.59,9.44a2.38,2.38,0,0,0-.16,2.73c.26.42,2.64,4.09,6.81,4.09a7.36,7.36,0,0,0,3.28-.79c5.06-2.47,10.38-9.17,10.61-9.46a2.37,2.37,0,0,0,.22-2.59c-.86-1.59-3.24-4.27-6.73-4.27Zm0,2.38c3,0,4.64,3,4.64,3s-5.15,6.53-9.78,8.8a5.08,5.08,0,0,1-2.24.55c-3,0-4.79-3-4.79-3s5.24-6.57,9.77-8.79A5.43,5.43,0,0,1,485,42.63Z"/><path class="cls-1" d="M475.16,34.93h0A7.71,7.71,0,0,0,471.31,36c-4.78,2.77-9.7,9.86-9.91,10.16a2.38,2.38,0,0,0,0,2.73c.26.37,2.71,3.63,6.61,3.63a7.3,7.3,0,0,0,3.69-1c4.87-2.82,9.71-9.87,9.92-10.17a2.38,2.38,0,0,0,0-2.61c-.25-.39-2.53-3.79-6.53-3.79Zm0,2.37c2.82,0,4.53,2.69,4.53,2.69s-4.69,6.87-9.15,9.46a5,5,0,0,1-2.5.72c-2.8,0-4.69-2.64-4.69-2.64s4.78-6.92,9.15-9.46A5.31,5.31,0,0,1,475.16,37.3Z"/><path class="cls-1" d="M464.93,30.29h0a7.52,7.52,0,0,0-4.23,1.38c-4.58,3.1-9,10.52-9.17,10.83a2.37,2.37,0,0,0,.21,2.72,9,9,0,0,0,6.37,3.17,7.19,7.19,0,0,0,4.09-1.31c4.66-3.15,9-10.52,9.18-10.83a2.36,2.36,0,0,0-.14-2.61,8.39,8.39,0,0,0-6.31-3.35Zm0,2.38a6.14,6.14,0,0,1,4.41,2.38s-4.2,7.19-8.47,10.07a4.82,4.82,0,0,1-2.76.9,6.67,6.67,0,0,1-4.54-2.31s4.27-7.24,8.46-10.08A5.14,5.14,0,0,1,464.93,32.67Z"/><path class="cls-1" d="M454.41,26.39h0a7.37,7.37,0,0,0-4.6,1.69c-4.35,3.41-8.23,11.11-8.39,11.44a2.37,2.37,0,0,0,.4,2.7,9.16,9.16,0,0,0,6.1,2.73,7.14,7.14,0,0,0,4.46-1.6c4.43-3.47,8.25-11.13,8.41-11.46a2.36,2.36,0,0,0-.32-2.58,8.58,8.58,0,0,0-6.06-2.92Zm0,2.37a6.25,6.25,0,0,1,4.25,2.08S455,38.3,450.92,41.48a4.77,4.77,0,0,1-3,1.1,6.85,6.85,0,0,1-4.38-2s3.75-7.52,7.73-10.64A5,5,0,0,1,454.41,28.76Z"/><path class="cls-1" d="M443.64,23.23h0a7.32,7.32,0,0,0-4.94,2c-4.1,3.71-7.44,11.67-7.58,12a2.37,2.37,0,0,0,.6,2.66,9.27,9.27,0,0,0,5.77,2.32,7.17,7.17,0,0,0,4.84-1.93c4.17-3.77,7.45-11.67,7.59-12a2.4,2.4,0,0,0-.5-2.56,8.74,8.74,0,0,0-5.78-2.5Zm0,2.37a6.38,6.38,0,0,1,4.08,1.79s-3.16,7.7-7,11.15a4.75,4.75,0,0,1-3.25,1.32,7,7,0,0,1-4.18-1.7s3.23-7.76,7-11.15A4.92,4.92,0,0,1,443.64,25.6Z"/><path class="cls-1" d="M432.69,20.83h0a7.28,7.28,0,0,0-5.28,2.37c-3.82,4-6.6,12.16-6.71,12.5a2.38,2.38,0,0,0,.77,2.62,9.47,9.47,0,0,0,5.43,1.93A7.08,7.08,0,0,0,432.08,38c3.91-4.06,6.62-12.17,6.74-12.51a2.37,2.37,0,0,0-.68-2.52,8.84,8.84,0,0,0-5.45-2.11Zm0,2.37a6.56,6.56,0,0,1,3.88,1.51s-2.62,7.9-6.19,11.61a4.71,4.71,0,0,1-3.48,1.55,7.19,7.19,0,0,1-4-1.41s2.68-8,6.18-11.61A4.83,4.83,0,0,1,432.69,23.2Z"/><path class="cls-1" d="M421.61,19.19h0A7.13,7.13,0,0,0,416,22c-3.54,4.24-5.74,12.59-5.83,12.94a2.35,2.35,0,0,0,.95,2.55,9.69,9.69,0,0,0,5,1.57,7.06,7.06,0,0,0,5.54-2.66c3.61-4.31,5.75-12.6,5.84-13a2.37,2.37,0,0,0-.85-2.46,9,9,0,0,0-5.09-1.75Zm0,2.37a6.65,6.65,0,0,1,3.64,1.26s-2.05,8.06-5.36,12a4.69,4.69,0,0,1-3.72,1.81,7.32,7.32,0,0,1-3.69-1.15s2.12-8.14,5.36-12A4.79,4.79,0,0,1,421.61,21.56Z"/><path class="cls-2" d="M2.32,185.88a20.78,20.78,0,0,0,1,6.5,20.55,20.55,0,0,0,25.91,13A20.51,20.51,0,0,0,39.35,198a20.63,20.63,0,0,0,2.91-18.65,20.58,20.58,0,0,0-13-13.06,20.52,20.52,0,0,0-13,0,20.33,20.33,0,0,0-5.62,2.93,20.66,20.66,0,0,0-7.33,10.13,21,21,0,0,0-1,6.52Zm30.26-.06a9.68,9.68,0,0,1-.77,3.81,9.86,9.86,0,0,1-2.09,3.14,10,10,0,0,1-3.11,2.12,9.77,9.77,0,0,1-3.82.78,9.62,9.62,0,0,1-3.79-.78,9.87,9.87,0,0,1-5.95-9.07,9.78,9.78,0,0,1,2.86-7A9.72,9.72,0,0,1,22.79,176a9.81,9.81,0,0,1,6.93,2.88A10,10,0,0,1,31.81,182a9.82,9.82,0,0,1,.77,3.84ZM84,171.21a20.43,20.43,0,0,0-4.15-3.2A20.57,20.57,0,0,0,63,166.3a20.56,20.56,0,0,0-13,25.95,20.56,20.56,0,0,0,13,13,20.43,20.43,0,0,0,16.88-1.8,21,21,0,0,0,4.16-3.23l-7.66-7.55a8.64,8.64,0,0,1-3,2,10.24,10.24,0,0,1-3.86.71,10.39,10.39,0,0,1-3.85-.72,8.94,8.94,0,0,1-5-5.06,10.54,10.54,0,0,1,0-7.71,8.8,8.8,0,0,1,5-5,10.82,10.82,0,0,1,7.71,0,8.79,8.79,0,0,1,3,2L84,171.21Zm8.32,35.13h25.49v-8.81H103.06V190h13V180.9h-13v-6.73h14.71v-8.92H92.28v41.09Zm41.25,0L136,201h16.79l2.52,5.38h10.78l-19.32-41.14H141.9l-19.15,41.14Zm10.89-23.53,4.16,9h-8.37l4.21-9Zm61.72,23.53V165.3H195.36v19.4l-19.42-19.4h-4.38v41.09h10.78V186.94l19.37,19.45Z"/><path class="cls-2" d="M599.08,206.29h10.77v-41H599.08v41Zm23.91-41h-4.87v41.14H629V185.33l10.78,9.77,10.72-9.83v21.12h10.84V165.25h-4.87L639.73,180.5,623,165.25Zm57.34,9.08H687a5.9,5.9,0,0,1,5.9,5.94,5.81,5.81,0,0,1-.8,3,5.85,5.85,0,0,1-5.1,2.89h-6.68V174.33Zm-10.78,32h10.78V195.45h6.73a14.58,14.58,0,0,0,5.76-1.19,14.76,14.76,0,0,0,4.74-3.24,15.39,15.39,0,0,0,3.21-4.79,15.11,15.11,0,0,0-3.26-16.55,15.37,15.37,0,0,0-4.8-3.25,15.08,15.08,0,0,0-5.87-1.18H669.55v41.09Zm38.19,0h25.5v-8.81H718.52V190h13V180.9h-13v-6.73h14.72v-8.92h-25.5v41.09Zm69.44,0-8.7-14.9a15.53,15.53,0,0,0,2.58-3.12,15.81,15.81,0,0,0,1.69-3.74,15.35,15.35,0,0,0,.6-4.21,14.91,14.91,0,0,0-1.19-5.87,15.24,15.24,0,0,0-8-8.06,14.94,14.94,0,0,0-5.87-1.19H741v41.09h10.77V195.43h6.68l6.35,10.91Zm-25.45-32h6.68a6,6,0,0,1,3,.8,5.85,5.85,0,0,1,2.12,2.13,5.91,5.91,0,0,1,.8,3,5.85,5.85,0,0,1-.8,3,5.74,5.74,0,0,1-2.12,2.09,5.9,5.9,0,0,1-3,.79h-6.68V174.34Zm30.7,31.95h10.78v-41H782.43v41Zm27.09.1L812,201h16.8l2.51,5.38h10.78l-19.31-41.14h-4.87l-19.15,41.14Zm10.88-23.53,4.16,9h-8.37l4.21-9Zm27.14,23.53H873.1V195.56H858.32V165.25H847.54Z"/><path class="cls-1" d="M410.23,106.09A6.21,6.21,0,1,1,404,99.88,6.21,6.21,0,0,1,410.23,106.09Z"/><path class="cls-1" d="M404,91.42a14.67,14.67,0,1,0,14.66,14.67A14.68,14.68,0,0,0,404,91.42ZM404,124a17.91,17.91,0,1,1,17.91-17.91A17.94,17.94,0,0,1,404,124Z"/><path class="cls-1" d="M420.19,121,389.1,89.92a2.21,2.21,0,1,0-3.73,1.13,2.25,2.25,0,0,0,2,.61l31.08,31.08a2.22,2.22,0,1,0,1.74-1.73Z"/><path class="cls-1" d="M425.76,105.56h-44c-.4,0-1.07-1.21-1.84-1.21a2.12,2.12,0,0,0-2.21,2.1,2.39,2.39,0,0,0,2.21,2.41c.77,0,1.48-.77,1.84-.77h44c.39,0,1.07.72,1.83.72a2.33,2.33,0,0,0,2.21-2.35,2.08,2.08,0,0,0-2.21-2C426.82,104.42,426.15,105.56,425.76,105.56Z"/><path class="cls-1" d="M402.51,84.45v44c0,.4-1,1.07-1,1.84a2.19,2.19,0,0,0,2.19,2.21,2.26,2.26,0,0,0,2.27-2.21c0-.77-.92-1.48-.92-1.84v-44c0-.4.92-1.07.91-1.84a2.23,2.23,0,0,0-2.24-2.21,2.19,2.19,0,0,0-2.19,2.21C401.52,83.38,402.51,84.05,402.51,84.45Z"/><path class="cls-1" d="M418.45,89.92,387.37,121a2.21,2.21,0,1,0,1.13,3.73,2.2,2.2,0,0,0,.6-2l31.09-31.08a2.24,2.24,0,0,0,2-.61,2.21,2.21,0,1,0-3.73-1.13Z"/><path class="cls-3" d="M484.76,230.81S515.47,165.06,571,125.06c0,0-81.35-6.55-144.45,24.63-49.81,24.6-101.13,54-158.92,60.06a85,85,0,0,0-5.12,13.56s44.66-3.8,80.4,13.75S428.2,280,484.76,230.81Z"/><path class="cls-2" d="M340.54,193.67s38.39-1.81,42.38-18.26l-18.49-13s-40.61,15.9-84.23,35.09c0,0,44.84-9.8,51.3-7.41S340.54,193.67,340.54,193.67Z"/><path class="cls-4" d="M426.52,149.69c-49.81,24.6-101.13,54-158.92,60.06a85,85,0,0,0-5.12,13.56,180.94,180.94,0,0,1,27.29.34c44,0,82.12-18.33,127-52,62-46.58,154.25-46.58,154.25-46.58S489.62,118.51,426.52,149.69Z"/><path class="cls-2" d="M356.6,160.68s-8.55-3.8-12-4.24-54.47,32.21-54.47,32.21h0Z"/><path class="cls-2" d="M488.86,180C451.29,231.57,427,241,386.12,255.09c28.78,8.13,62.26,7.36,98.64-24.28,0,0,30.71-65.75,86.21-105.75C571,125.06,525.65,129.38,488.86,180Z"/><path class="cls-1" d="M440.11,272.43s-46.57,17.63-89.84-9.14c-52.74-32.64-77.72-25.59-77.72-25.59s19,3.31,55.46,31.9C387.89,316.58,440.11,272.43,440.11,272.43Z"/><path class="cls-1" d="M287.94,250.37s23.49,12.26,38.17,27.56C326.11,277.93,297.34,275.7,287.94,250.37Z"/><path class="cls-1" d="M484.76,230.81S450,258.37,397.67,244.59,291.29,202.43,239.48,233.3c0,0,44.65-16.73,113,22.87C416.05,293,472.64,254,484.76,230.81Z"/></svg>